<?xml version="1.0" encoding="UTF-8" standalone="no"?>
<svg
   xmlns:dc="http://purl.org/dc/elements/1.1/"
   xmlns:cc="http://creativecommons.org/ns#"
   xmlns:rdf="http://www.w3.org/1999/02/22-rdf-syntax-ns#"
   xmlns:svg="http://www.w3.org/2000/svg"
   xmlns="http://www.w3.org/2000/svg"
   xmlns:sodipodi="http://sodipodi.sourceforge.net/DTD/sodipodi-0.dtd"
   xmlns:inkscape="http://www.inkscape.org/namespaces/inkscape"
   version="1.1"
   width="284.25079"
   height="41.532867"
   id="svg17983"
   inkscape:version="0.48.4 r9939"
   sodipodi:docname="framechapter.svg">
  <metadata
     id="metadata2992">
    <rdf:RDF>
      <cc:Work
         rdf:about="">
        <dc:format>image/svg+xml</dc:format>
        <dc:type
           rdf:resource="http://purl.org/dc/dcmitype/StillImage" />
      </cc:Work>
    </rdf:RDF>
  </metadata>
  <defs
     id="defs2990" />
  <sodipodi:namedview
     pagecolor="#ffffff"
     bordercolor="#666666"
     borderopacity="1"
     objecttolerance="10"
     gridtolerance="10"
     guidetolerance="10"
     inkscape:pageopacity="0"
     inkscape:pageshadow="2"
     inkscape:window-width="1618"
     inkscape:window-height="1027"
     id="namedview2988"
     showgrid="false"
     inkscape:zoom="2.9049903"
     inkscape:cx="201.36828"
     inkscape:cy="8.9121536"
     inkscape:window-x="-8"
     inkscape:window-y="-8"
     inkscape:window-maximized="1"
     inkscape:current-layer="svg17983" />
  <g
     transform="translate(-6.9867978,0.00373782)"
     id="layer1">
    <path
       d="M 42.985454,5.4232558 C 42.923037,5.4350647 38.747759,6.2271021 36.061243,8.8233652 35.720473,8.4707863 35.31138,8.1696602 34.868547,7.9107087 35.514661,6.493645 35.609975,5.3574635 35.141838,4.5384345 34.580074,3.5566118 33.440519,3.4444276 33.394126,3.4393666 L 32.742952,3.3820096 32.975755,3.99354 c 0.684915,1.7907296 -2.001603,3.110792 -2.028594,3.1234443 l 0.0043,0.010122 c -3.154654,0.387162 -6.291594,2.5979502 -6.10687,7.7761367 0.06242,1.729999 0.72962,3.09561 1.98642,4.068998 -0.05145,0.302812 -0.100376,0.525494 -0.151828,0.71528 -0.458016,-0.622497 -1.185947,-1.072077 -2.154274,-1.072077 -0.262326,0 -0.541522,0.03289 -0.8359,0.10375 -0.825776,0.197376 -1.22053,0.968327 -1.30741,1.886044 l -0.01181,0 c 0.03121,1.097381 0.414154,1.994855 1.317532,2.212475 0.296909,0.07085 0.576104,0.103749 0.836743,0.103749 0.96664,0 1.695415,-0.44958 2.15343,-1.072076 0.0523,0.189785 0.100376,0.409936 0.152673,0.715279 -1.256801,0.973388 -1.924002,2.338999 -1.985577,4.068999 -0.185567,5.178186 2.952216,7.388974 6.106026,7.776136 l -0.0043,0.0084 c 0.02615,0.01518 2.714352,1.334402 2.027751,3.125132 l -0.23196,0.609843 0.650331,-0.05567 c 0.04893,-0.005 1.185948,-0.117245 1.747712,-1.099068 0.469824,-0.820716 0.371979,-1.955211 -0.273291,-3.372274 0.443677,-0.258952 0.851926,-0.560078 1.192695,-0.912656 2.68736,2.596263 6.861794,3.389143 6.924212,3.398422 l 0.07254,0.0084 c 66.037164,8.01e-4 146.074254,-0.0059 212.111414,-0.0059 l 0.0726,-0.0067 c 0.0624,-0.01012 4.23769,-0.80216 6.92421,-3.398423 0.34077,0.35258 0.74986,0.653706 1.1927,0.91097 -0.64611,1.418751 -0.74227,2.553245 -0.27245,3.372275 0.56176,0.98351 1.70048,1.095694 1.74687,1.100754 l 0.65117,0.05567 -0.23281,-0.609843 c -0.6849,-1.79073 2.00161,-3.111635 2.02861,-3.125132 l -0.004,-0.0084 c 3.15466,-0.387162 6.29159,-2.59795 6.10687,-7.776138 -0.0624,-1.729998 -0.72962,-3.097296 -1.98642,-4.068997 0.0523,-0.304499 0.10038,-0.525494 0.15183,-0.716966 0.45801,0.624182 1.18595,1.073763 2.15428,1.073763 0.26232,0 0.54151,-0.03289 0.83589,-0.10375 0.90253,-0.21762 1.28632,-1.115094 1.31753,-2.212474 l -0.0118,0 c -0.0868,-0.917718 -0.48079,-1.688668 -1.30657,-1.886045 -0.29691,-0.07085 -0.57611,-0.103749 -0.83675,-0.103749 -0.96663,0 -1.69625,0.44958 -2.15426,1.072076 -0.0515,-0.189785 -0.0995,-0.409936 -0.15184,-0.71528 1.25681,-0.973388 1.92401,-2.338999 1.98642,-4.068997 0.18473,-5.179874 -2.95222,-7.3889751 -6.10687,-7.7761372 l 0.004,-0.010122 c -0.027,-0.013495 -2.71435,-1.3327147 -2.02859,-3.1234446 l 0.23281,-0.6115305 -0.65118,0.057357 c -0.0481,0.00506 -1.1851,0.1172451 -1.74687,1.0990678 -0.46983,0.8190291 -0.37197,1.9552106 0.27245,3.3722743 -0.44283,0.2589515 -0.85193,0.5600775 -1.19269,0.9126565 -2.68652,-2.5962632 -6.86179,-3.3908311 -6.92422,-3.4001095 l -0.0726,-0.00674 c -69.03568,-0.00253 -153.09127,0.00338 -212.180577,0.010965 z M 40.282068,31.131153 c -0.390535,0 -0.708531,-0.317996 -0.708531,-0.710218 0,-0.390536 0.317996,-0.708532 0.708531,-0.708532 0.390536,0 0.708532,0.317996 0.708532,0.708532 0,0.392222 -0.317996,0.710218 -0.708532,0.710218 z m 6.213993,-3.548563 c 0.405719,0.495972 0.917718,0.862891 1.317532,1.097381 -0.96411,0.513685 -1.584918,-0.01181 -1.733372,-0.15942 0.208342,-0.320527 0.335709,-0.647801 0.41584,-0.937961 z m -5.76863,-5.987094 c 0.12821,0 0.249674,0.0084 0.371979,0.0135 -0.301126,0.199064 -0.500189,0.542364 -0.500189,0.931214 0,0.615747 0.500189,1.116781 1.11678,1.116781 0.615749,0 1.115939,-0.501034 1.115939,-1.116781 0,-0.281726 -0.107967,-0.537304 -0.280039,-0.732994 2.159335,0.546582 3.254186,2.176205 3.254186,4.86947 0,0.02109 0.01518,1.067859 -0.724559,1.785669 -0.544051,0.527181 -1.368985,0.765889 -2.451183,0.710219 -1.691198,-0.08772 -2.694951,-0.439459 -3.330943,-0.893257 0.786133,-0.973388 1.067015,-1.953523 0.824933,-2.915945 -0.382944,-1.527561 -1.985575,-2.571802 -2.936189,-3.071149 1.282949,-0.693349 2.734596,-0.696723 3.539285,-0.696727 z m -4.311923,1.225591 c 0.672262,0.312935 2.558306,1.301506 2.917634,2.741344 0.171228,0.684071 -0.04302,1.405254 -0.624183,2.150056 -0.281726,-0.364387 -0.435241,-0.748176 -0.566826,-1.088946 -0.257264,-0.660453 -0.94724,-2.281641 -1.970393,-3.576398 0.07929,-0.08098 0.160263,-0.153516 0.243768,-0.226056 z M 47.81528,12.851031 c -0.401501,0.233648 -0.911813,0.601409 -1.318375,1.097381 -0.07928,-0.29016 -0.207498,-0.615747 -0.41331,-0.937118 0.146767,-0.148454 0.766732,-0.673948 1.731685,-0.160263 z m -7.533212,-2.449495 c 0.390536,0 0.708532,0.317996 0.708532,0.708531 0,0.390536 -0.317996,0.708532 -0.708532,0.708532 -0.390535,0 -0.708531,-0.317996 -0.708531,-0.708532 0,-0.390535 0.317996,-0.708531 0.708531,-0.708531 z m 2.350808,1.958584 c 1.081355,-0.05567 1.907975,0.183037 2.450339,0.710219 0.739741,0.718654 0.724558,1.764582 0.724558,1.785669 0,2.693264 -1.096537,4.322888 -3.254185,4.867783 0.172072,-0.194003 0.280038,-0.449581 0.280038,-0.731306 0,-0.615749 -0.50019,-1.116781 -1.116781,-1.116781 -0.615747,0 -1.116781,0.501032 -1.116781,1.116781 0,0.388848 0.19822,0.729618 0.501034,0.931213 -0.12315,0.005 -0.243769,0.01181 -0.37198,0.01181 -0.805533,0 -2.25718,-0.0034 -3.538442,-0.695036 0.950614,-0.501034 2.552402,-1.543588 2.935346,-3.071149 0.242082,-0.962422 -0.0388,-1.942558 -0.82409,-2.915945 0.635992,-0.453798 1.638902,-0.806377 3.330944,-0.893258 z m -4.490743,2.547341 c 0.131585,-0.339083 0.2851,-0.722871 0.566826,-1.088946 0.581165,0.744802 0.795411,1.467673 0.624183,2.151744 -0.359328,1.439837 -2.245372,2.428408 -2.917634,2.739656 -0.0835,-0.07085 -0.16448,-0.145081 -0.243768,-0.224368 1.023153,-1.296445 1.713129,-2.915946 1.970393,-3.578086 z M 33.906969,4.4473375 c 0.192315,0.1020623 0.389692,0.2606385 0.52465,0.4976593 0.324744,0.5668255 0.219307,1.4659862 -0.296908,2.606385 C 33.597407,7.3287005 33.028051,7.1810896 32.451948,7.1127669 33.188315,6.5248542 33.988787,5.6088237 33.906969,4.4473375 z M 23.880399,22.020615 c -0.479102,-0.115559 -0.66214,-0.667201 -0.691662,-1.363924 l 0.0135,0 c 0.05229,-0.573574 0.242082,-1.040867 0.679853,-1.144617 1.412003,-0.339083 2.20151,0.463077 2.448652,1.255114 -0.249673,0.790351 -1.03918,1.59251 -2.450343,1.253427 z m 10.55122,14.567077 c -0.134958,0.237021 -0.334022,0.39391 -0.52465,0.497659 0.08182,-1.163172 -0.720341,-2.077516 -1.455864,-2.665429 0.578634,-0.06748 1.146302,-0.215934 1.683606,-0.438615 0.516215,1.137868 0.621652,2.039559 0.296908,2.606385 z m 1.850618,-7.283538 c 0.237021,0.871325 0.02952,1.596727 -0.278351,2.134874 -0.805533,-1.002911 -1.344524,-2.247058 -1.344524,-3.77462 0,-0.169542 0.0034,-0.335709 0.01012,-0.495972 0.620809,0.389693 1.315001,1.050146 1.612755,2.135718 z m -2.540592,-7.184851 c 0.468137,0.151828 0.924465,0.487538 1.354645,0.938805 -0.57273,0.769263 -0.948927,1.731685 -1.130277,2.886424 -0.869638,-0.295222 -1.808444,-0.37704 -2.635908,-0.235335 -0.572729,-1.213782 -1.867486,-2.616506 -2.852683,-3.174897 1.931592,-0.84349 4.306018,-0.724558 5.264223,-0.414997 z m -4.070685,4.761503 c 0.355954,0 0.732993,-0.06242 1.130278,-0.191473 0.0776,0.44452 0.06073,0.856987 0.03965,1.253427 -0.03458,0.686601 -0.0717,1.393446 0.428493,2.129813 -0.233646,-0.02615 -0.489225,-0.103749 -0.710219,-0.2851 C 30.009203,29.336206 29.793269,28.3392 29.934976,26.906111 z M 28.207504,23.32212 c 0.791195,0.506094 1.823627,1.647337 2.315381,2.601325 -0.511155,0.161106 -1.18173,0.253889 -1.724937,-0.08604 -0.523807,-0.326432 -0.859517,-1.011345 -0.970014,-1.98389 -0.03289,-0.29016 -0.06326,-0.533929 -0.09278,-0.755767 0.08688,0.02024 0.235334,0.07422 0.47235,0.224372 z m 0.158576,3.211168 c 0.22943,0.141706 0.483321,0.238708 0.755768,0.295221 -0.174603,1.747712 0.138332,2.958964 0.926996,3.600017 0.931213,0.755767 2.136561,0.388849 2.188014,0.370292 l 0.684914,-0.215933 -0.538147,-0.477416 c -0.800472,-0.711906 -0.769263,-1.301505 -0.727089,-2.118847 0.02109,-0.438616 0.04639,-0.933744 -0.05904,-1.493821 0.715279,-0.09362 1.535153,0.0067 2.275737,0.286786 -0.02024,0.285099 -0.03121,0.580321 -0.03121,0.886508 0,1.833748 0.676479,3.292986 1.659989,4.446038 -0.893257,0.947239 -2.321286,1.538526 -3.711358,1.538526 -0.107123,0 -0.213403,-0.0034 -0.319682,-0.01181 -1.280419,-0.08604 -2.587829,-0.506094 -3.637131,-1.357176 0.458015,-0.140019 0.791194,-0.561765 0.791194,-1.064485 0,-0.615748 -0.50019,-1.11678 -1.115937,-1.11678 -0.433555,0 -0.80216,0.248829 -0.988572,0.608155 -0.581164,-1.033275 -0.919404,-2.360928 -0.858673,-4.049596 0.04639,-1.291384 0.48332,-2.34406 1.304879,-3.136941 0.01687,0.131585 0.03289,0.273291 0.05145,0.423432 0.137488,1.22981 0.604782,2.124752 1.347898,2.58783 z m -1.350427,-8.947745 c -0.01771,0.151828 -0.03459,0.293534 -0.0523,0.423432 -0.820716,-0.791194 -1.257644,-1.845557 -1.304879,-3.136941 -0.05989,-1.688668 0.276665,-3.016321 0.859516,-4.04791 0.186411,0.35764 0.555861,0.606469 0.988571,0.606469 0.614904,0 1.115938,-0.501032 1.115938,-1.11678 0,-0.5027206 -0.334022,-0.9244657 -0.791194,-1.0644852 1.048458,-0.8519251 2.357555,-1.2736703 3.63713,-1.3571758 0.10628,-0.00844 0.21256,-0.011809 0.319683,-0.011809 1.389228,0 2.819787,0.5912868 3.710514,1.5385264 -0.98351,1.1547386 -1.659146,2.6148196 -1.659146,4.4460376 0,0.306187 0.01181,0.601409 0.03121,0.888195 -0.740585,0.278352 -1.562145,0.378727 -2.276581,0.285099 0.105436,-0.55839 0.08266,-1.054363 0.05989,-1.493821 -0.04217,-0.817342 -0.07338,-1.406941 0.727088,-2.118847 l 0.538147,-0.477416 -0.685757,-0.215933 c -0.05061,-0.01687 -1.254271,-0.385475 -2.186327,0.370292 -0.789508,0.641053 -1.102442,1.851461 -0.92784,3.600017 -0.271603,0.05567 -0.525494,0.153515 -0.755767,0.296909 -0.740585,0.463075 -1.207879,1.357175 -1.347896,2.586141 z m 3.825228,-3.996457 c 0.02109,0.397283 0.03795,0.808906 -0.03965,1.251739 -0.397284,-0.126523 -0.774324,-0.191472 -1.130278,-0.191472 l 0.263169,-0.02615 c -0.141706,-1.43309 0.07422,-2.430095 0.624183,-2.881363 0.220995,-0.18135 0.474886,-0.25895 0.710219,-0.2851 -0.499346,0.737211 -0.462232,1.444056 -0.427643,2.132346 z m -3.105731,4.843321 c 0.02952,-0.222682 0.05904,-0.46645 0.09194,-0.754924 0.112184,-0.971701 0.446206,-1.659145 0.970013,-1.985576 0.543208,-0.337396 1.21294,-0.247143 1.724937,-0.08604 -0.491754,0.953987 -1.525873,2.096917 -2.31538,2.601324 -0.236177,0.152672 -0.384631,0.205812 -0.47151,0.225216 z m 7.361983,0.03965 c -0.431867,0.452955 -0.888195,0.791194 -1.353802,0.940493 -0.959048,0.30956 -3.33263,0.428493 -5.263379,-0.416685 0.98604,-0.556703 2.279954,-1.956897 2.852684,-3.173211 0.827464,0.14002 1.766269,0.05905 2.635907,-0.235333 0.179664,1.153052 0.557548,2.115474 1.12859,2.884736 z m 1.185104,-6.245202 c -0.297752,1.08726 -0.991944,1.746025 -1.612753,2.134874 -0.0067,-0.159419 -0.01012,-0.32643 -0.01012,-0.495972 0,-1.527561 0.538991,-2.769179 1.344524,-3.776306 0.307874,0.540677 0.515372,1.266079 0.278349,2.137404 z M 255.12808,6.2330065 c 0.39981,0.079288 4.16093,0.8848214 6.52355,3.2255069 -0.59972,0.9109696 -0.7777,1.9535236 -0.49681,2.9834246 0.33402,1.222218 1.13449,2.194762 2.31369,2.81051 0.004,0.0017 0.007,0.0034 0.0101,0.005 -0.14678,1.09232 -0.46815,1.929062 -0.89411,2.570115 -0.71865,-0.950614 -1.3285,-2.158491 -1.74012,-3.215385 -0.32643,-0.840116 -0.78866,-1.71819 -1.94593,-2.322973 0.34414,-0.280039 0.57019,-0.701783 0.57019,-1.179199 0,-0.840116 -0.6849,-1.5258738 -1.52671,-1.5258738 -0.84096,0 -1.52588,0.6849138 -1.52588,1.5258738 0,0.181351 0.0379,0.352579 0.0953,0.511998 -0.27582,-0.03289 -0.56429,-0.06073 -0.87808,-0.0776 -1.25764,-0.06748 -2.25464,0.224368 -2.96233,0.851924 -0.38211,-0.342456 -1.6465,-1.225591 -3.32251,0.200751 l -0.51622,0.439459 0.63094,0.252203 c 0.0177,0.0067 1.89194,0.767577 2.10788,2.171145 l 0.0481,-0.0084 c 0.20075,3.464215 2.22091,5.299649 5.87744,5.299649 2.23778,0 3.93741,-0.556703 5.08625,-1.662519 0.4909,0.50272 1.04339,0.904222 1.64733,1.099068 1.20282,0.387162 4.17949,0.518747 6.42149,-0.731306 0.0894,0.452954 0.18136,0.715279 0.29523,1.045928 0.0278,0.08098 0.0573,0.167855 0.0885,0.262325 -0.0312,0.09362 -0.0607,0.181351 -0.0885,0.262326 -0.11387,0.331492 -0.20413,0.592974 -0.29523,1.045928 -2.242,-1.250053 -5.21951,-1.118468 -6.42149,-0.731306 -0.60394,0.194003 -1.15643,0.596348 -1.64733,1.099067 -1.14884,-1.105815 -2.84847,-1.662519 -5.08625,-1.662519 -3.65738,0 -5.67585,1.835435 -5.87744,5.29965 l -0.0481,-0.0067 c -0.21594,1.403568 -2.08933,2.162709 -2.10788,2.169458 l -0.63094,0.252203 0.51622,0.439458 c 1.67601,1.428029 2.9404,0.544052 3.32251,0.200751 0.70769,0.629244 1.70469,0.919405 2.96233,0.851925 0.31379,-0.01518 0.60226,-0.04471 0.87808,-0.0776 -0.0573,0.15942 -0.0953,0.333179 -0.0953,0.511998 0,0.840117 0.68492,1.525874 1.52588,1.525874 0.84181,0 1.52671,-0.684913 1.52671,-1.525874 0,-0.477415 -0.22605,-0.89916 -0.57019,-1.179199 1.15727,-0.604783 1.6195,-1.482856 1.94593,-2.322972 0.41162,-1.057738 1.02315,-2.267303 1.74012,-3.215385 0.42596,0.641053 0.74733,1.477795 0.89411,2.570115 -0.004,0.0017 -0.007,0.0034 -0.0101,0.005 -1.1792,0.615748 -1.98136,1.58998 -2.31369,2.81051 -0.28089,1.029902 -0.10291,2.072455 0.49681,2.983425 -2.3643,2.340685 -6.12542,3.14622 -6.52355,3.225507 -66.01014,-1.6e-5 -146.02029,8.44e-4 -212.030441,8.44e-4 -0.398971,-0.07929 -4.160938,-0.883135 -6.523554,-3.225507 0.599721,-0.909283 0.777698,-1.951837 0.496815,-2.981739 -0.334022,-1.222217 -1.134494,-2.196448 -2.313693,-2.810509 -0.0034,-0.0017 -0.0067,-0.0034 -0.01012,-0.005 0.146767,-1.09232 0.468137,-1.929062 0.893256,-2.571801 0.719498,0.950613 1.329341,2.160178 1.740964,3.217071 0.326431,0.840117 0.78782,1.71819 1.945933,2.322972 -0.344144,0.280039 -0.5702,0.701785 -0.5702,1.1792 0,0.840117 0.68407,1.524187 1.525874,1.524187 0.841803,0 1.526717,-0.68407 1.526717,-1.524187 0,-0.18135 -0.03795,-0.352579 -0.09531,-0.511999 0.275821,0.03289 0.563451,0.06073 0.878073,0.0776 1.257644,0.06579 2.25465,-0.224369 2.961494,-0.851926 0.382101,0.342457 1.646494,1.225592 3.323352,-0.202437 l 0.516216,-0.438616 -0.63093,-0.252203 c -0.01856,-0.0084 -1.891948,-0.767576 -2.107882,-2.171144 l -0.04893,0.0084 c -0.200751,-3.465901 -2.220066,-5.299649 -5.876597,-5.299649 -2.238623,0 -3.937413,0.555017 -5.08709,1.660832 -0.490911,-0.502719 -1.042554,-0.902534 -1.647336,-1.099067 -1.202818,-0.387162 -4.179495,-0.518747 -6.420649,0.731306 -0.09026,-0.452954 -0.182193,-0.713593 -0.296065,-1.045928 -0.02783,-0.07928 -0.05651,-0.166168 -0.08772,-0.260638 0.03121,-0.09362 0.05989,-0.181351 0.08772,-0.262326 0.113872,-0.333179 0.204125,-0.592974 0.296065,-1.045928 2.241154,1.250053 5.219518,1.118468 6.420649,0.731306 0.604782,-0.194003 1.156425,-0.596348 1.647336,-1.099068 1.149677,1.105816 2.848467,1.660833 5.08709,1.660833 3.656531,0 5.675846,-1.833748 5.876597,-5.297963 l 0.04893,0.0067 c 0.215934,-1.403568 2.089325,-2.162709 2.107882,-2.171145 l 0.63093,-0.25047 -0.516216,-0.439458 c -1.676858,-1.428029 -2.941251,-0.544895 -3.323352,-0.200751 -0.706844,-0.629244 -1.70385,-0.919405 -2.961494,-0.853612 -0.314622,0.01687 -0.602252,0.04639 -0.878073,0.07928 0.05736,-0.161107 0.09531,-0.333179 0.09531,-0.511999 0,-0.841804 -0.684914,-1.5258742 -1.526717,-1.5258742 -0.841804,0 -1.525874,0.6840702 -1.525874,1.5258742 0,0.477415 0.226056,0.899161 0.5702,1.1792 -1.158113,0.604782 -1.619502,1.482855 -1.945933,2.322972 -0.411623,1.057737 -1.023154,2.265614 -1.740964,3.215384 -0.425119,-0.642739 -0.746489,-1.479481 -0.893256,-2.571801 0.0034,-0.0017 0.0067,-0.0034 0.01012,-0.005 1.179199,-0.614905 1.980515,-1.588292 2.313693,-2.81051 0.280883,-1.028215 0.102906,-2.072455 -0.496815,-2.981738 2.364303,-2.3406857 6.125426,-3.1462188 6.523554,-3.225507 66.010151,2.278e-4 146.020291,-0.00168 212.030441,-0.00168 z m 2.10787,24.1896155 c 0,-0.390537 0.31801,-0.708532 0.70854,-0.708532 0.39138,0 0.70937,0.317995 0.70937,0.708532 0,0.390535 -0.31799,0.708531 -0.70937,0.708531 -0.39053,0 -0.70854,-0.317996 -0.70854,-0.708531 z m -5.09214,-1.902914 c -0.14761,0.150141 -0.76842,0.675635 -1.73253,0.159419 0.4015,-0.233646 0.91181,-0.601408 1.31753,-1.097381 0.081,0.291004 0.21003,0.618278 0.415,0.937962 z m 8.89376,-6.22749 c -0.95146,0.499347 -2.55241,1.543588 -2.93534,3.071149 -0.24209,0.962422 0.0388,1.942558 0.82409,2.914259 -0.636,0.452954 -1.63891,0.80722 -3.33095,0.894943 -1.08135,0.05567 -1.90882,-0.183038 -2.45033,-0.710219 -0.73975,-0.718654 -0.72457,-1.764581 -0.72457,-1.785668 0,-2.693266 1.0957,-4.322888 3.25419,-4.869471 -0.17207,0.19569 -0.28004,0.451268 -0.28004,0.732994 0,0.615747 0.50019,1.116781 1.11678,1.116781 0.61575,0 1.11594,-0.501034 1.11594,-1.116781 0,-0.38885 -0.19738,-0.731306 -0.50019,-0.931214 0.12315,-0.005 0.24377,-0.0135 0.37198,-0.0135 0.80469,0 2.25633,0.0034 3.53844,0.696727 z m 1.01724,0.754925 c -1.02399,1.294757 -1.71228,2.914259 -1.97038,3.576398 -0.13075,0.339083 -0.2851,0.722871 -0.56683,1.088946 -0.58117,-0.744802 -0.79457,-1.465985 -0.62503,-2.151744 0.36101,-1.439837 2.24622,-2.428408 2.91848,-2.739656 0.0827,0.07254 0.16448,0.145081 0.24376,0.226056 z m -9.911,-10.036691 c -0.20581,0.321369 -0.33402,0.649487 -0.41247,0.937117 -0.40656,-0.495973 -0.91856,-0.86289 -1.31837,-1.097381 0.96242,-0.512842 1.58323,0.01265 1.73084,0.160264 z m 6.50837,-1.900385 c 0,0.390536 -0.318,0.708532 -0.70853,0.708532 -0.39054,0 -0.70854,-0.317996 -0.70854,-0.708532 0,-0.390535 0.318,-0.708531 0.70854,-0.708531 0.39053,0 0.70853,0.317996 0.70853,0.708531 z m 0.27244,2.143309 c -0.78528,0.973388 -1.06617,1.953524 -0.82409,2.915946 0.38295,1.527561 1.98558,2.570115 2.93535,3.071149 -1.28295,0.691662 -2.7329,0.695035 -3.53844,0.695035 -0.12821,0 -0.24883,-0.0067 -0.37198,-0.01181 0.30113,-0.199063 0.5002,-0.542364 0.5002,-0.931212 0,-0.615749 -0.5002,-1.116782 -1.11594,-1.116782 -0.6166,0 -1.11679,0.501033 -1.11679,1.116782 0,0.281725 0.10797,0.535616 0.28004,0.731306 -2.16018,-0.546583 -3.25418,-2.174519 -3.25418,-4.869471 0,-0.0194 -0.0152,-1.067858 0.72455,-1.783981 0.54321,-0.527182 1.36899,-0.765889 2.45119,-0.711906 1.69035,0.08856 2.6941,0.441146 3.33009,0.894944 z m 3.13019,5.232171 c -0.0793,0.07928 -0.16026,0.153515 -0.24376,0.224368 -0.67226,-0.311248 -2.55747,-1.299819 -2.91848,-2.739656 -0.17038,-0.684071 0.0439,-1.406942 0.62503,-2.151744 0.28173,0.366075 0.43608,0.749863 0.56683,1.088946 0.25726,0.66214 0.94639,2.281641 1.97038,3.578086 z m 3.71812,-11.3727801 c -0.57779,0.06748 -1.14546,0.2159336 -1.68277,0.4386149 -0.51368,-1.1403988 -0.61912,-2.0395595 -0.29691,-2.606385 0.13496,-0.2370208 0.33402,-0.395597 0.52465,-0.4976593 -0.0801,1.1614862 0.72034,2.0775167 1.45503,2.6654294 z m 6.12373,13.6527341 c 0.24799,-0.791194 1.0375,-1.59504 2.4495,-1.255114 0.43777,0.105437 0.62587,0.573574 0.67986,1.146304 l 0.0135,0 c -0.0295,0.695036 -0.21255,1.248365 -0.69166,1.363924 -1.41284,0.339083 -2.20319,-0.463076 -2.45118,-1.255114 z m -7.8065,13.215806 c 0.53731,0.222681 1.10666,0.369449 1.68277,0.438615 -0.73469,0.587913 -1.53516,1.502257 -1.45503,2.665429 -0.19231,-0.103749 -0.38969,-0.260638 -0.52465,-0.497659 -0.32305,-0.566826 -0.21762,-1.468517 0.29691,-2.606385 z m -0.53308,-6.812027 c 0.007,0.159419 0.0101,0.32643 0.0101,0.495972 0,1.527561 -0.53899,2.770865 -1.34453,3.776306 -0.30871,-0.540677 -0.51622,-1.263549 -0.27835,-2.134874 0.29691,-1.088102 0.99195,-1.748555 1.61276,-2.137404 z m 6.18953,-4.63498 c -0.9852,0.558391 -2.27996,1.958585 -2.85184,3.174897 -0.82747,-0.141705 -1.76627,-0.05905 -2.63591,0.235335 -0.18136,-1.154739 -0.55839,-2.117161 -1.13028,-2.886424 0.43186,-0.451267 0.8882,-0.789508 1.35381,-0.938805 0.95989,-0.309561 3.33431,-0.428493 5.26422,0.414997 z m -1.45418,4.374341 c 0.1417,1.43309 -0.0743,2.430095 -0.62418,2.881362 -0.22099,0.181352 -0.47489,0.258952 -0.71022,0.2851 0.50019,-0.736367 0.46307,-1.443211 0.42849,-2.129812 -0.0211,-0.398971 -0.0379,-0.808908 0.0396,-1.253427 0.39645,0.126523 0.77433,0.191472 1.13028,0.191472 z m 2.19898,-3.810889 c -0.0287,0.222681 -0.059,0.466449 -0.0919,0.755767 -0.11134,0.971701 -0.44621,1.659145 -0.97001,1.985576 -0.54321,0.337397 -1.21294,0.245456 -1.72494,0.08604 0.49175,-0.955674 1.52503,-2.096917 2.31538,-2.601324 0.23533,-0.151829 0.38379,-0.205812 0.47151,-0.226055 z m 0.71865,0.848551 c 0.0177,-0.151828 0.0346,-0.293535 0.0515,-0.423432 0.82157,0.791194 1.25849,1.845557 1.30488,3.135253 0.0607,1.688668 -0.27582,3.018009 -0.85866,4.049598 -0.18642,-0.359327 -0.55587,-0.60647 -0.98858,-0.60647 -0.61575,0 -1.11593,0.501033 -1.11593,1.116781 0,0.50272 0.33402,0.922778 0.79119,1.062798 -1.04931,0.853612 -2.35841,1.275357 -3.63713,1.358862 -0.10628,0.0067 -0.21257,0.01012 -0.31969,0.01012 -1.39007,0 -2.81978,-0.591287 -3.71135,-1.536839 0.98351,-1.154738 1.65999,-2.61482 1.65999,-4.446038 0,-0.306187 -0.0118,-0.601408 -0.0312,-0.888194 0.74058,-0.278353 1.56214,-0.380415 2.27573,-0.2851 -0.10544,0.558391 -0.0827,1.054362 -0.059,1.492978 0.0422,0.817342 0.0734,1.406941 -0.72709,2.118847 l -0.53815,0.477416 0.68492,0.21762 c 0.0515,0.01687 1.25511,0.385476 2.18716,-0.370292 0.78952,-0.641052 1.10245,-1.851461 0.92785,-3.601704 0.27161,-0.05398 0.52549,-0.151827 0.75576,-0.295221 0.74143,-0.463077 1.20788,-1.358019 1.3479,-2.586985 z m -1.34958,-8.946901 c -0.22943,-0.143394 -0.48333,-0.238708 -0.75577,-0.296909 0.1746,-1.746025 -0.13833,-2.958964 -0.927,-3.600017 -0.93121,-0.755767 -2.13656,-0.387162 -2.18801,-0.370292 l -0.68491,0.215933 0.53814,0.477416 c 0.80048,0.711906 0.76926,1.301505 0.72709,2.118847 -0.022,0.439458 -0.0456,0.933745 0.0599,1.493821 -0.71612,0.09532 -1.53599,-0.0067 -2.27658,-0.285099 0.0194,-0.286786 0.0312,-0.581165 0.0312,-0.888195 0,-1.833748 -0.67648,-3.291299 -1.65999,-4.4460376 0.89326,-0.9472396 2.32213,-1.5385263 3.71136,-1.5385263 0.10712,0 0.2134,0.00338 0.31968,0.011809 1.28127,0.086036 2.58783,0.5060941 3.63713,1.3571758 -0.45718,0.1400195 -0.7912,0.5617646 -0.7912,1.0644851 0,0.615748 0.5002,1.11678 1.11594,1.11678 0.43272,0 0.80217,-0.248829 0.98857,-0.606469 0.58117,1.031589 0.91941,2.359242 0.85952,4.04791 -0.0472,1.291384 -0.48417,2.34406 -1.30572,3.136941 -0.0168,-0.129898 -0.0329,-0.271604 -0.0515,-0.423432 -0.13834,-1.228966 -0.60479,-2.123066 -1.3479,-2.586141 z m -2.90245,-3.541817 c 0.2328,0.02615 0.48923,0.10375 0.71022,0.2851 0.54995,0.451267 0.76588,1.448273 0.62418,2.881363 l 0.26317,0.02615 c -0.35596,0 -0.73383,0.06411 -1.13028,0.191472 -0.0776,-0.442833 -0.0607,-0.8553 -0.0396,-1.253427 0.0346,-0.687445 0.0717,-1.39429 -0.42764,-2.130657 z m 3.06018,6.751297 c -0.79119,-0.504408 -1.82363,-1.645649 -2.31538,-2.599637 0.51115,-0.161107 1.18173,-0.253891 1.72493,0.08435 0.52382,0.328118 0.86036,1.013032 0.97002,1.985576 0.0329,0.290161 0.0633,0.53393 0.0919,0.755768 -0.0861,-0.02193 -0.23449,-0.07507 -0.47151,-0.226056 z m -5.75935,-2.621568 c 0.86964,0.295221 1.80844,0.375353 2.63591,0.235333 0.57188,1.213784 1.86664,2.616508 2.85184,3.173211 -1.92991,0.845178 -4.30518,0.726245 -5.26254,0.416685 -0.46729,-0.151829 -0.92363,-0.487538 -1.35381,-0.940492 0.57021,-0.769263 0.9481,-1.731685 1.1286,-2.884737 z m -2.03619,-5.495339 c 0.80554,1.004597 1.34453,2.247057 1.34453,3.774619 0,0.169542 -0.004,0.335709 -0.0101,0.497659 -0.62081,-0.388849 -1.31669,-1.049302 -1.61276,-2.134874 -0.23787,-0.873856 -0.0304,-1.599258 0.27835,-2.137404 z"
       id="path56611"
       style="fill:#005392;fill-opacity:1;stroke:#005392;stroke-width:0.25557756;stroke-linejoin:round;stroke-miterlimit:10;stroke-opacity:1;stroke-dasharray:none"
       inkscape:connector-curvature="0"
       sodipodi:nodetypes="ccccccccccccsccccsccccccccccccccccccccccccccsccccscccccccccccccccsssssccccscssscscccccsccccccccccsssssccscssscsccccccccccccccccccccccccccccsccccccccccccccccccccccccccccccscsccsscccccccccssccscscccccccccccccccccccccccccccccccsccccccccccsssccccccccscccccccccsccccccccsssccccccccccccccccsssccccccccscccccccccsccccccccsssccccccccccssssscccccccccscssscscccccccccccssssscccscssscscccccccccccccccccccccccccccsccccccccccccccccccccccccccccssccscsccccccccccccccccccccscsccsscccccccccccccccccccccsccccscscccc" />
  </g>
</svg>
